<?xml version="1.0" standalone="no"?>
<svg viewBox="0 0 200 200" xmlns="http://www.w3.org/2000/svg">
  <path fill="#0F62FE" d="M30.5,-51.6C42.8,-45.8,58.1,-44.1,62.7,-36.2C67.3,-28.3,61,-14.2,61.5,0.3C62,14.7,69.2,29.4,67.1,41.5C64.9,53.6,53.4,63.1,40.7,71.1C28,79.1,14,85.6,2.3,81.6C-9.4,77.7,-18.8,63.3,-28.7,53.6C-38.5,44,-48.9,39.1,-56.8,30.9C-64.8,22.8,-70.3,11.4,-68.2,1.2C-66,-8.9,-56.2,-17.8,-50.7,-30.3C-45.2,-42.7,-44.2,-58.7,-36.5,-67.2C-28.8,-75.7,-14.4,-76.7,-2.6,-72.2C9.1,-67.6,18.2,-57.5,30.5,-51.6Z" transform="translate(100 100)" />
</svg>
